<?xml version="1.0" encoding="iso-8859-1"?>
<!-- Generator: Adobe Illustrator 19.0.0, SVG Export Plug-In . SVG Version: 6.00 Build 0)  -->
<svg version="1.1" id="Layer_1" xmlns="http://www.w3.org/2000/svg" xmlns:xlink="http://www.w3.org/1999/xlink" x="0px" y="0px"
	 viewBox="0 0 236 236" style="enable-background:new 0 0 236 236;" xml:space="preserve">
<g>
	<g>
		<g>
			<path d="M235.795,194.734L220,147.349V40c0-2.211-1.791-4-4-4H24c-2.209,0-4,1.789-4,4v107.202L0.309,194.461
				c-0.516,1.234-0.379,2.644,0.363,3.758S2.662,200,4,200h228c1.285,0,2.492-0.617,3.244-1.66
				C235.996,197.297,236.201,195.953,235.795,194.734z M28,44h184v100H28V44z M10,192l16.666-40h186.451l13.334,40H10z"/>
			<rect x="54.659" y="46.475" transform="matrix(0.7071 0.7071 -0.7071 0.7071 66.2124 -21.1681)" width="7.999" height="45.734"/>
			<rect x="64" y="42.061" transform="matrix(-0.7071 -0.7071 0.7071 -0.7071 59.5138 184.6521)" width="7.999" height="75.879"/>
			<rect x="84" y="180" width="68" height="8"/>
			<rect x="160" y="180" width="20" height="8"/>
			<rect x="56" y="180" width="20" height="8"/>
		</g>
	</g>
</g>
<g>
</g>
<g>
</g>
<g>
</g>
<g>
</g>
<g>
</g>
<g>
</g>
<g>
</g>
<g>
</g>
<g>
</g>
<g>
</g>
<g>
</g>
<g>
</g>
<g>
</g>
<g>
</g>
<g>
</g>
</svg>
