<?xml version='1.0' encoding='iso-8859-1'?>
<!DOCTYPE svg PUBLIC '-//W3C//DTD SVG 1.1//EN' 'http://www.w3.org/Graphics/SVG/1.1/DTD/svg11.dtd'>
<svg version="1.1" xmlns="http://www.w3.org/2000/svg" viewBox="0 0 437 437" xmlns:xlink="http://www.w3.org/1999/xlink" enable-background="new 0 0 437 437">
  <path d="m344.283,224h-118.283v-113.665c53.367-3.855 95.61-48.502 95.61-102.835 0-4.142-3.358-7.5-7.5-7.5-43.215,0-80.3,26.727-95.609,64.518-15.31-37.791-52.395-64.518-95.611-64.518-4.142,0-7.5,3.358-7.5,7.5 0,54.333 42.243,98.98 95.61,102.835v113.665h-118.283c-4.142,0-7.5,3.358-7.5,7.5v49.654c0,4.142 3.358,7.5 7.5,7.5h13.438l10.173,141.384c0.282,3.923 3.547,6.962 7.48,6.962h189.384c3.933,0 7.198-3.039 7.48-6.962l10.173-141.384h13.437c4.142,0 7.5-3.358 7.5-7.5v-49.654c0.001-4.142-3.357-7.5-7.499-7.5zm-38.02-208.654c-3.755,42.334-37.583,76.163-79.917,79.917 3.755-42.334 37.583-76.162 79.917-79.917zm-175.526-0c42.334,3.755 76.163,37.583 79.917,79.917-42.334-3.754-76.163-37.582-79.917-79.917zm82.764,298.654c0-2.757 2.243-5 5-5s5,2.243 5,5-2.243,5-5,5-5-2.243-5-5zm92.712,108h-49.583v-47.394l18.855-18.855c2.49,1.115 5.24,1.75 8.141,1.75 11.028,0 20-8.972 20-20s-8.972-20-20-20-20,8.972-20,20c0,2.632 0.524,5.141 1.452,7.445l-21.251,21.251c-1.407,1.406-2.197,3.314-2.197,5.303v50.5h-15.63v-89.473c7.32-2.974 12.5-10.152 12.5-18.527 0-11.028-8.972-20-20-20s-20,8.972-20,20c0,8.375 5.18,15.553 12.5,18.527v89.473h-15.63v-32.5c0-1.989-0.79-3.897-2.197-5.303l-21.25-21.25c0.928-2.303 1.451-4.811 1.451-7.442 0-11.028-8.972-20-20-20s-20,8.972-20,20 8.972,20 20,20c2.901,0 5.652-0.635 8.143-1.75l18.853,18.853v29.392h-49.583l-9.595-133.346h194.615l-9.594,133.346zm-27.587-84.499c0-2.757 2.243-5 5-5s5,2.243 5,5-2.243,5-5,5-5-2.243-5-5zm-125.251,23.003c-2.757,0-5-2.243-5-5s2.243-5 5-5 5,2.243 5,5-2.243,5-5,5zm183.408-86.85h-236.566v-34.654h236.566v34.654z"/>
</svg>
