<?xml version="1.0" encoding="iso-8859-1"?>
<!-- Generator: Adobe Illustrator 19.0.0, SVG Export Plug-In . SVG Version: 6.00 Build 0)  -->
<svg version="1.1" id="Layer_1" xmlns="http://www.w3.org/2000/svg" xmlns:xlink="http://www.w3.org/1999/xlink" x="0px" y="0px"
	 viewBox="0 0 512 512" style="enable-background:new 0 0 512 512;" xml:space="preserve">
<g>
	<g>
		<g>
			<path d="M445.259,271.17c1.325-2.994,2.067-6.301,2.067-9.781v-86.232c0-7.613-3.529-14.414-9.033-18.863h0.949
				c4.466,0,8.084-3.618,8.084-8.084c0-4.466-3.618-8.084-8.084-8.084h-56.589v-35.032c0-4.466-3.619-8.084-8.084-8.084H253.305
				V83.537c0-4.466-3.62-8.084-8.084-8.084H72.758c-4.465,0-8.084,3.619-8.084,8.084v188.111C27.671,280.226,0,313.437,0,353.01
				c0,46.062,37.475,83.537,83.537,83.537h344.926c46.062,0,83.537-37.475,83.537-83.537
				C512,312.699,483.299,278.967,445.259,271.17z M423.074,167.074c4.458,0,8.084,3.626,8.084,8.084v86.232
				c0,4.458-3.626,8.084-8.084,8.084h-53.895c-4.458,0-8.084-3.626-8.084-8.084v-86.232c0-4.458,3.626-8.084,8.084-8.084H423.074z
				 M253.305,113.179h113.179v26.947H353.01c-4.466,0-8.084,3.618-8.084,8.084c0,4.466,3.618,8.084,8.084,8.084h0.949
				c-5.504,4.45-9.033,11.251-9.033,18.863v86.232c0,2.834,0.494,5.553,1.391,8.084h-23.979c2.971-4.045,5.857-9.208,8.523-15.789
				c5.961-14.711,8.676-31.462,8.676-40.8c0-22.289-18.132-40.421-40.421-40.421c-4.367,0-8.651,0.727-12.719,2.076
				c2.68-10.476,12.199-18.244,23.498-18.244c4.466,0,8.084-3.618,8.084-8.084c0-4.466-3.619-8.084-8.084-8.084
				c-20.378,0-37.273,15.159-40.02,34.792c-4.405-1.61-9.095-2.455-13.875-2.455c-0.907,0-1.803,0.041-2.695,0.1V113.179z
				 M256,188.632c5.974,0,11.715,2.195,16.165,6.178c3.07,2.748,7.716,2.748,10.785,0c4.451-3.984,10.191-6.178,16.165-6.178
				c13.372,0,24.253,10.88,24.253,24.253c0,18.264-10.981,54.051-24.253,54.051c-5.974,0-11.715-2.195-16.165-6.178
				c-1.535-1.373-3.464-2.061-5.393-2.061c-1.928,0-3.858,0.688-5.393,2.061c-4.451,3.984-10.191,6.178-16.165,6.178
				c-13.272,0-24.253-35.786-24.253-54.051C231.747,199.512,242.627,188.632,256,188.632z M210.189,91.621h26.947v85.529
				c-12.809,6.789-21.558,20.256-21.558,35.734c0,9.338,2.715,26.088,8.676,40.8c2.667,6.581,5.553,11.744,8.523,15.789h-22.588
				V91.621z M80.842,91.621h113.179v177.853H83.537h-2.695V91.621z M428.463,420.379H83.537c-37.146,0-67.368-30.221-67.368-67.368
				c0-37.147,30.222-67.368,67.368-67.368h344.926c37.148,0,67.368,30.221,67.368,67.368
				C495.832,390.158,465.611,420.379,428.463,420.379z"/>
			<path d="M83.537,323.368c-16.345,0-29.642,13.298-29.642,29.642c0,16.344,13.297,29.642,29.642,29.642
				s29.642-13.298,29.642-29.642C113.179,336.666,99.882,323.368,83.537,323.368z M83.537,366.484
				c-7.43,0-13.474-6.044-13.474-13.474s6.044-13.474,13.474-13.474s13.474,6.044,13.474,13.474S90.967,366.484,83.537,366.484z"/>
			<path d="M428.463,323.368c-16.344,0-29.642,13.298-29.642,29.642c0,16.344,13.298,29.642,29.642,29.642
				s29.642-13.298,29.642-29.642C458.105,336.666,444.807,323.368,428.463,323.368z M428.463,366.484
				c-7.43,0-13.474-6.044-13.474-13.474s6.044-13.474,13.474-13.474s13.474,6.044,13.474,13.474S435.893,366.484,428.463,366.484z"
				/>
			<path d="M256,323.368c-16.345,0-29.642,13.298-29.642,29.642c0,16.344,13.297,29.642,29.642,29.642
				c16.344,0,29.642-13.298,29.642-29.642C285.642,336.666,272.344,323.368,256,323.368z M256,366.484
				c-7.43,0-13.474-6.044-13.474-13.474s6.044-13.474,13.474-13.474c7.43,0,13.474,6.044,13.474,13.474S263.43,366.484,256,366.484z
				"/>
			<path d="M342.232,323.368c-16.344,0-29.642,13.298-29.642,29.642c0,16.344,13.298,29.642,29.642,29.642
				s29.642-13.298,29.642-29.642C371.874,336.666,358.576,323.368,342.232,323.368z M342.232,366.484
				c-7.43,0-13.474-6.044-13.474-13.474s6.044-13.474,13.474-13.474s13.474,6.044,13.474,13.474S349.661,366.484,342.232,366.484z"
				/>
			<path d="M169.768,323.368c-16.345,0-29.642,13.298-29.642,29.642c0,16.344,13.297,29.642,29.642,29.642
				s29.642-13.298,29.642-29.642C199.411,336.666,186.114,323.368,169.768,323.368z M169.768,366.484
				c-7.43,0-13.474-6.044-13.474-13.474s6.044-13.474,13.474-13.474s13.474,6.044,13.474,13.474S177.198,366.484,169.768,366.484z"
				/>
		</g>
	</g>
</g>
<g>
</g>
<g>
</g>
<g>
</g>
<g>
</g>
<g>
</g>
<g>
</g>
<g>
</g>
<g>
</g>
<g>
</g>
<g>
</g>
<g>
</g>
<g>
</g>
<g>
</g>
<g>
</g>
<g>
</g>
</svg>
