<?xml version="1.0" ?><!DOCTYPE svg  PUBLIC '-//W3C//DTD SVG 1.1//EN'  'http://www.w3.org/Graphics/SVG/1.1/DTD/svg11.dtd'><svg width="100px" height="100px" viewBox="0 0 100 100" style="enable-background:new 0 0 100 100;" version="1.1" xml:space="preserve" xmlns="http://www.w3.org/2000/svg" xmlns:xlink="http://www.w3.org/1999/xlink"><g id="_x31_"/><g id="_x32_"/><g id="_x33_"/><g id="_x34_"/><g id="_x35_"/><g id="_x36_"/><g id="_x37_"/><g id="_x38__x27_"/><g id="_x39_"/><g id="_x31_0"/><g id="_x31_1"/><g id="_x31_2"/><g id="_x31_3"/><g id="_x31_4"/><g id="_x31_5"/><g id="_x31_6"><path d="M90.1,68.9h-2.8L51.9,25.3l4.8-5.9c0.5-0.6,0.4-1.6-0.2-2.1c-0.6-0.5-1.6-0.4-2.1,0.2l-4.4,5.4l-4.4-5.4   c-0.5-0.6-1.5-0.7-2.1-0.2c-0.6,0.5-0.7,1.5-0.2,2.1l4.8,5.9L12.7,68.9H9.9c-0.8,0-1.5,0.7-1.5,1.5v11.2c0,0.8,0.7,1.5,1.5,1.5h3.5   h3.7h4.5h19.4h18.2h19.2h4.7h3.4h3.7c0.8,0,1.5-0.7,1.5-1.5V70.4C91.6,69.5,90.9,68.9,90.1,68.9z M81.4,70.4v9.7h-2.3L57.2,36.6   l26.1,32.2h-0.4C82.1,68.9,81.4,69.5,81.4,70.4z M42.4,37L20.6,80.1h-2.1v-9.7c0-0.8-0.7-1.5-1.5-1.5h-0.5L42.4,37z M13.4,80.1h-2   v-8.2h4.1v8.2H13.4z M42.4,80.1v-9.9c0-4.2,3.4-7.6,7.6-7.6s7.6,3.4,7.6,7.6v9.9H42.4z M60.6,80.1v-9.9c0-5.8-4.7-10.6-10.6-10.6   s-10.6,4.7-10.6,10.6v9.9H24l25.9-51.4l25.9,51.4H60.6z M88.6,80.1h-2.2h-1.9v-8.2h4.1V80.1z"/></g><g id="_x31_7"/><g id="_x31_8"/><g id="_x31_9"/><g id="_x32_0"/><g id="_x32_1"/><g id="_x32_2"/><g id="_x32_3"/><g id="_x32_4"/><g id="_x32_5"/></svg>