<?xml version="1.0" encoding="iso-8859-1"?>
<!-- Generator: Adobe Illustrator 19.0.0, SVG Export Plug-In . SVG Version: 6.00 Build 0)  -->
<svg version="1.1" id="Layer_1" xmlns="http://www.w3.org/2000/svg" xmlns:xlink="http://www.w3.org/1999/xlink" x="0px" y="0px"
	 viewBox="0 0 512 512" style="enable-background:new 0 0 512 512;" xml:space="preserve">
<g>
	<path style="fill:#CEE8FA;" d="M202.291,194.114c-63.739,0-115.595,51.856-115.595,115.595s51.856,115.595,115.595,115.595
		s115.595-51.856,115.595-115.595S266.03,194.114,202.291,194.114z M202.291,353.056c-23.941,0-43.348-19.407-43.348-43.348
		s19.407-43.348,43.348-43.348s43.348,19.407,43.348,43.348S226.232,353.056,202.291,353.056z"/>
	<polygon style="fill:#CEE8FA;" points="354.961,81.43 421.943,14.449 438.518,73.482 497.551,90.056 430.569,157.038 
		361.319,150.68 	"/>
</g>
<path style="fill:#2D527C;" d="M511.529,86.401c-1.298-4.966-5.132-8.869-10.073-10.256l-51.22-14.38l-14.383-51.22
	c-1.387-4.94-5.29-8.775-10.255-10.074c-4.963-1.298-10.245,0.134-13.873,3.763l-66.98,66.979
	c-3.036,3.036-4.565,7.264-4.172,11.538l5.738,62.504l-11.625,11.624c-36.805-31.927-83.644-49.46-132.397-49.46
	C90.748,107.417,0,198.165,0,309.708s90.748,202.291,202.291,202.291s202.291-90.748,202.291-202.291
	c0-7.979-6.469-14.449-14.449-14.449c-7.98,0-14.449,6.47-14.449,14.449c0,95.609-77.784,173.392-173.392,173.392
	S28.899,405.317,28.899,309.708s77.784-173.392,173.392-173.392c41.09,0,80.593,14.545,111.896,41.061l-30.773,30.771
	c-22.256-17.815-50.466-28.485-81.124-28.485c-71.706,0-130.044,58.338-130.044,130.044s58.338,130.044,130.044,130.044
	s130.044-58.338,130.044-130.044c0-30.659-10.671-58.868-28.485-81.124l62.897-62.895l62.504,5.738
	c0.442,0.04,0.881,0.061,1.322,0.061c3.813,0,7.495-1.51,10.217-4.232l66.98-66.98C511.396,96.645,512.828,91.364,511.529,86.401z
	 M303.437,309.708c0,55.772-45.374,101.146-101.146,101.146S101.146,365.48,101.146,309.708s45.374-101.146,101.146-101.146
	c22.685,0,43.65,7.509,60.541,20.17l-31.206,31.206c-8.606-5.092-18.632-8.027-29.335-8.027c-31.87,0-57.797,25.928-57.797,57.797
	s25.928,57.797,57.797,57.797s57.797-25.928,57.797-57.797c0-10.703-2.935-20.729-8.027-29.335l31.206-31.206
	C295.927,266.058,303.437,287.023,303.437,309.708z M231.19,309.708c0,15.935-12.964,28.899-28.899,28.899
	s-28.899-12.964-28.899-28.899s12.964-28.899,28.899-28.899c2.581,0,5.072,0.373,7.453,1.01l-17.672,17.672
	c-5.642,5.642-5.642,14.792,0,20.436c2.822,2.82,6.52,4.232,10.217,4.232s7.397-1.412,10.217-4.232l17.672-17.672
	C230.817,304.637,231.19,307.126,231.19,309.708z M425.143,142.029l-50.534-4.638l-4.638-50.535l44.734-44.734l9.904,35.265
	c1.361,4.852,5.153,8.642,10.005,10.006l35.265,9.902L425.143,142.029z"/>
<g>
</g>
<g>
</g>
<g>
</g>
<g>
</g>
<g>
</g>
<g>
</g>
<g>
</g>
<g>
</g>
<g>
</g>
<g>
</g>
<g>
</g>
<g>
</g>
<g>
</g>
<g>
</g>
<g>
</g>
</svg>
