<?xml version="1.0" encoding="iso-8859-1"?>
<!-- Generator: Adobe Illustrator 19.0.0, SVG Export Plug-In . SVG Version: 6.00 Build 0)  -->
<svg version="1.1" id="Layer_1" xmlns="http://www.w3.org/2000/svg" xmlns:xlink="http://www.w3.org/1999/xlink" x="0px" y="0px"
	 viewBox="0 0 512.002 512.002" style="enable-background:new 0 0 512.002 512.002;" xml:space="preserve">
<g>
	<g>
		<g>
			<path d="M256.001,42.175c-25.313,0-45.908,20.593-45.908,45.908c0,4.465,3.618,8.084,8.084,8.084h75.647
				c4.466,0,8.084-3.62,8.084-8.084C301.909,62.768,281.314,42.175,256.001,42.175z M227.379,79.998
				c3.53-12.482,15.025-21.655,28.622-21.655s25.091,9.173,28.622,21.655H227.379z"/>
			<path d="M408.17,223.912l-67.57-52.061V84.6c0-46.649-37.951-84.6-84.599-84.6s-84.6,37.951-84.6,84.6v87.252l-67.508,52.015
				c-1.22,0.921-29.875,22.9-29.875,51.749v85.704c0,4.465,3.619,8.084,8.084,8.084h89.298v11.624
				c0,13.278,8.987,24.489,21.196,27.888c-1.177,5.808-1.781,11.724-1.781,17.684c0,19.414,6.145,37.862,17.771,53.35
				c11.237,14.969,27.233,26.225,45.04,31.694c0.774,0.237,1.574,0.357,2.373,0.357c0.8,0,1.6-0.119,2.374-0.357
				c17.808-5.469,33.802-16.726,45.04-31.694c11.626-15.487,17.771-33.935,17.771-53.35c0-5.961-0.603-11.877-1.78-17.684
				c12.207-3.401,21.194-14.611,21.194-27.888v-11.624h89.299c4.466,0,8.084-3.62,8.084-8.084v-85.704
				C437.983,246.767,409.328,224.787,408.17,223.912z M171.4,353.235H90.187v-77.62c0-20.751,23.23-38.678,23.512-38.895
				l57.701-44.458V353.235z M200.353,393.811c-7.048,0-12.783-5.734-12.783-12.784v-11.624h60.347v24.408h-45.156H200.353z
				 M256.001,495.416c-29.424-10.122-49.017-37.469-49.017-68.816c0-5.614,0.645-11.183,1.919-16.62h39.014V427.4
				c0,4.465,3.619,8.084,8.084,8.084s8.084-3.62,8.084-8.084v-17.421H303.1c1.274,5.436,1.918,11.004,1.918,16.62
				C305.018,457.947,285.425,485.293,256.001,495.416z M324.431,381.027c0,7.049-5.734,12.784-12.783,12.784h-2.406h-45.157v-24.408
				h60.346V381.027z M421.815,353.235H340.6v-88.901c0-4.465-3.619-8.084-8.084-8.084s-8.084,3.62-8.084,8.084v88.901h-60.346
				v-37.129c0-4.465-3.619-8.084-8.084-8.084s-8.084,3.62-8.084,8.084v37.129H187.57V175.828V84.6
				c0-37.734,30.697-68.431,68.431-68.431c37.733,0,68.43,30.697,68.43,68.431v153.865c0,4.465,3.619,8.084,8.084,8.084
				s8.084-3.62,8.084-8.084v-46.202l57.763,44.504c0.234,0.178,23.452,18.292,23.452,38.848V353.235z"/>
		</g>
	</g>
</g>
<g>
</g>
<g>
</g>
<g>
</g>
<g>
</g>
<g>
</g>
<g>
</g>
<g>
</g>
<g>
</g>
<g>
</g>
<g>
</g>
<g>
</g>
<g>
</g>
<g>
</g>
<g>
</g>
<g>
</g>
</svg>
